# xmcd
#
# Track frame offsets: 
#        150
#        17575
#        26727
#        40784
#        54466
#        71163
#        87710
#        101212
#        118389
#        136856
#        152593
#        167535
#
# Disc length: 2514 seconds
#
# Revision: 0
# Processed by: cddbd v1.5.2PL0 Copyright (c) Steve Scherf et al.
# Submitted via: ExactAudioCopy v1.0b1
#
DISCID=a209d00c
DTITLE=Ann Rabson with Bob Margolin - Not Alone
DYEAR=2012
DGENRE=Blues
TTITLE0=I'm Going to Live The Life I Sing About In My Song
TTITLE1=Let's Get Drunk and Truck
TTITLE2=How Long Blues
TTITLE3=It Ain't Love
TTITLE4=Guess I'm A Fool
TTITLE5=Caledonia
TTITLE6=Let's Go Get Stoned
TTITLE7=Let It Go
TTITLE8=Is You Is or Is You Ain't My Baby
TTITLE9=Anywhere You Go
TTITLE10=No Time For the Blues
TTITLE11=River's Invitation
EXTD=
EXTT0=
EXTT1=
EXTT2=
EXTT3=
EXTT4=
EXTT5=
EXTT6=
EXTT7=
EXTT8=
EXTT9=
EXTT10=
EXTT11=
PLAYORDER=
